<svg width="30" height="30" viewBox="0 0 30 30" fill="none" xmlns="http://www.w3.org/2000/svg">
<path fill-rule="evenodd" clip-rule="evenodd" d="M22.7322 8.26779C23.0893 8.62484 23.0893 9.20373 22.7322 9.56078L8.56078 23.7322C8.20373 24.0893 7.62484 24.0893 7.26779 23.7322C6.91074 23.3752 6.91074 22.7963 7.26779 22.4392L21.4392 8.26779C21.7963 7.91074 22.3752 7.91074 22.7322 8.26779Z" fill="white"/>
<path fill-rule="evenodd" clip-rule="evenodd" d="M7.26779 8.26779C7.62484 7.91074 8.20373 7.91074 8.56078 8.26779L22.7322 22.4392C23.0893 22.7963 23.0893 23.3752 22.7322 23.7322C22.3752 24.0893 21.7963 24.0893 21.4392 23.7322L7.26779 9.56078C6.91074 9.20373 6.91074 8.62484 7.26779 8.26779Z" fill="white"/>
</svg>
