<svg width="30" height="30" viewBox="0 0 30 30" fill="none" xmlns="http://www.w3.org/2000/svg">
<path fill-rule="evenodd" clip-rule="evenodd" d="M24.6653 5.33474C25.1116 5.78105 25.1116 6.50467 24.6653 6.95098L6.95098 24.6653C6.50467 25.1116 5.78105 25.1116 5.33474 24.6653C4.88842 24.219 4.88842 23.4953 5.33474 23.049L23.049 5.33474C23.4953 4.88842 24.219 4.88842 24.6653 5.33474Z" fill="black"/>
<path fill-rule="evenodd" clip-rule="evenodd" d="M5.33474 5.33474C5.78105 4.88842 6.50467 4.88842 6.95098 5.33474L24.6653 23.049C25.1116 23.4953 25.1116 24.219 24.6653 24.6653C24.219 25.1116 23.4953 25.1116 23.049 24.6653L5.33474 6.95098C4.88842 6.50467 4.88842 5.78105 5.33474 5.33474Z" fill="black"/>
</svg>
