<svg width="30" height="30" viewBox="0 0 30 30" fill="none" xmlns="http://www.w3.org/2000/svg">
<g clip-path="url(#clip0_1206_7774)">
<ellipse cx="15.0015" cy="13.271" rx="11.3095" ry="10.771" fill="#CCCCCC"/>
<circle cx="9.37604" cy="18.125" r="8.125" fill="#CCCCCC"/>
<circle cx="20.626" cy="18.125" r="8.125" fill="#CCCCCC"/>
<path fill-rule="evenodd" clip-rule="evenodd" d="M15.0001 26.25C19.4087 26.25 23.0559 22.9896 23.6617 18.7485C23.6911 18.7495 23.7205 18.75 23.7501 18.75C25.1308 18.75 26.2501 17.6308 26.2501 16.25C26.2501 14.8693 25.1308 13.75 23.7501 13.75C23.4764 13.75 23.2129 13.794 22.9664 13.8754C21.5884 10.8518 18.5397 8.75005 15.0001 8.75005C11.4605 8.75005 8.4118 10.8518 7.03385 13.8754C6.78734 13.794 6.52387 13.75 6.25012 13.75C4.86941 13.75 3.75012 14.8693 3.75012 16.25C3.75012 17.6308 4.86941 18.75 6.25012 18.75C6.27971 18.75 6.30918 18.7495 6.33851 18.7485C6.94439 22.9896 10.5915 26.25 15.0001 26.25Z" fill="#FFDEC6"/>
<path d="M15.002 22.5006C14.1375 22.5006 13.4097 21.9156 13.1928 21.1198C13.1202 20.8534 13.3508 20.6256 13.627 20.6256H16.377C16.6531 20.6256 16.8837 20.8534 16.8111 21.1198C16.5942 21.9156 15.8664 22.5006 15.002 22.5006Z" fill="#DB2829"/>
<circle cx="0.9375" cy="0.9375" r="0.9375" transform="matrix(1 0 0 -1 11.252 17.5006)" fill="black"/>
<circle cx="0.9375" cy="0.9375" r="0.9375" transform="matrix(1 0 0 -1 16.877 17.5006)" fill="black"/>
<path d="M6.68208 10.6416C6.45068 8.28901 8.29897 6.25 10.6629 6.25H13.7501V6.99884C13.7501 10.7475 10.7481 13.8056 7.00012 13.875L6.68208 10.6416Z" fill="#CCCCCC"/>
</g>
<defs>
<clipPath id="clip0_1206_7774">
<rect width="30" height="30" fill="white"/>
</clipPath>
</defs>
</svg>
