<svg width="16" height="17" viewBox="0 0 16 17" fill="none" xmlns="http://www.w3.org/2000/svg">
<g clip-path="url(#clip0_1201_8186)">
<path d="M9.66265 13.957C10.1348 14.3447 10.73 14.5665 11.3482 14.5852C11.9665 14.6037 12.57 14.418 13.0573 14.0592L13.4816 13.7583C13.6685 13.6192 13.7904 13.415 13.821 13.1893C13.8516 12.9636 13.7886 12.7342 13.6455 12.5504L12.2525 10.8217C12.1064 10.6417 11.893 10.523 11.6582 10.4911C11.4235 10.4593 11.1861 10.5168 10.9974 10.6514C10.8071 10.7863 10.5684 10.8439 10.3322 10.8119C10.0961 10.7799 9.88135 10.6607 9.73392 10.48L7.54936 7.73967C7.47633 7.64942 7.42258 7.54638 7.39127 7.43654C7.35995 7.32671 7.35167 7.21226 7.36692 7.09987C7.38217 6.98747 7.42064 6.87937 7.4801 6.78184C7.53955 6.68432 7.61881 6.59933 7.71325 6.5318C7.89951 6.39406 8.02094 6.19112 8.05139 5.9667C8.08184 5.74227 8.01887 5.51432 7.87605 5.33192L6.49251 3.59638C6.34505 3.41566 6.13032 3.29653 5.89421 3.2645C5.65801 3.23245 5.4193 3.29005 5.22902 3.42495L4.81201 3.73496C4.31971 4.08749 3.9712 4.59307 3.82506 5.16668C3.67892 5.74029 3.74416 6.34696 4.00978 6.88468C5.41069 9.56001 7.32939 11.9605 9.66265 13.957Z" fill="#B0B8C1" stroke="#B0B8C1" stroke-linecap="round" stroke-linejoin="round"/>
</g>
<defs>
<clipPath id="clip0_1201_8186">
<rect width="16" height="16" fill="white" transform="translate(0 0.5)"/>
</clipPath>
</defs>
</svg>
