<svg width="30" height="30" viewBox="0 0 30 30" fill="none" xmlns="http://www.w3.org/2000/svg">
<g clip-path="url(#clip0_1206_7757)">
<path d="M26.25 13.75C26.25 7.5368 21.2132 2.5 15 2.5C8.7868 2.5 3.75 7.5368 3.75 13.75V15C3.75 16.3807 4.86929 17.5 6.25 17.5H23.75C25.1307 17.5 26.25 16.3807 26.25 15V13.75Z" fill="black"/>
<path fill-rule="evenodd" clip-rule="evenodd" d="M15.0012 27.4995C20.2233 27.4995 24.5105 23.4966 24.9619 18.3918C25.3384 18.6188 25.7796 18.7495 26.2512 18.7495C27.6319 18.7495 28.7512 17.6302 28.7512 16.2495C28.7512 14.8688 27.6319 13.7495 26.2512 13.7495C25.5817 13.7495 24.9737 14.0126 24.5249 14.4412C23.2328 10.4142 19.4574 7.49947 15.0012 7.49947C10.545 7.49947 6.76965 10.4142 5.47753 14.4412C5.02876 14.0126 4.42073 13.7495 3.75122 13.7495C2.37051 13.7495 1.25122 14.8688 1.25122 16.2495C1.25122 17.6302 2.37051 18.7495 3.75122 18.7495C4.22289 18.7495 4.66404 18.6188 5.04049 18.3918C5.49191 23.4966 9.77911 27.4995 15.0012 27.4995Z" fill="#FFDEC6"/>
<path d="M15.0004 23.7498C14.1359 23.7498 13.4081 23.1648 13.1912 22.3691C13.1186 22.1027 13.3492 21.8748 13.6254 21.8748H16.3754C16.6515 21.8748 16.8822 22.1027 16.8095 22.3691C16.5926 23.1648 15.8648 23.7498 15.0004 23.7498Z" fill="#DB2829"/>
<circle cx="0.9375" cy="0.9375" r="0.9375" transform="matrix(1 0 0 -1 11.2502 17.4997)" fill="black"/>
<circle cx="0.9375" cy="0.9375" r="0.9375" transform="matrix(1 0 0 -1 16.8752 17.4997)" fill="black"/>
<path fill-rule="evenodd" clip-rule="evenodd" d="M12.7271 5.98581C12.7269 5.96015 12.7268 5.93446 12.7268 5.90875H16.6698C21.2789 5.90875 24.9059 9.84388 24.531 14.4376L20.3801 14.1368C17.1339 13.9016 14.4391 11.8097 13.3043 8.94554C12.1872 11.8628 9.50429 14.0273 6.22941 14.361L5.46936 14.4384L5.50592 13.8012C5.73804 9.75594 8.81559 6.51768 12.7271 5.98581Z" fill="black"/>
</g>
<defs>
<clipPath id="clip0_1206_7757">
<rect width="30" height="30" fill="white"/>
</clipPath>
</defs>
</svg>
