<svg width="24" height="24" viewBox="0 0 24 24" fill="none" xmlns="http://www.w3.org/2000/svg">
<g clip-path="url(#clip0_866_9315)">
<rect x="5" y="3" width="14" height="20" rx="2" fill="#EEEEEE"/>
<path d="M5 5C5 3.89543 5.89543 3 7 3H17C18.1046 3 19 3.89543 19 5V5.5H5V5Z" fill="#999999"/>
<path d="M5 20.5H19V21C19 22.1046 18.1046 23 17 23H7C5.89543 23 5 22.1046 5 21V20.5Z" fill="#999999"/>
<path d="M9.67812 13.7753C9.27307 13.2127 9.27307 12.4542 9.67812 11.8916C9.77754 11.7535 9.92752 11.6604 10.0954 11.6324L11.1377 11.4587C11.1927 11.4495 11.2434 11.4234 11.2828 11.384L12.2929 10.3739C13.0194 9.64737 13.3827 9.28411 13.6913 9.41196C14 9.53981 14 10.0535 14 11.081L14 14.5859C14 15.6134 14 16.1271 13.6913 16.255C13.3827 16.3828 13.0194 16.0195 12.2929 15.293L11.2828 14.283C11.2434 14.2435 11.1927 14.2174 11.1377 14.2083L10.0954 14.0345C9.92752 14.0066 9.77754 13.9134 9.67812 13.7753Z" fill="#FB7634"/>
<path d="M17.7678 11.2324C18.2342 11.6988 18.4974 12.3306 18.5 12.9903C18.5026 13.6499 18.2444 14.2838 17.7816 14.7539" stroke="#FB7634" stroke-width="1.5" stroke-linecap="round"/>
<path d="M20.9749 10.1717C21.6279 10.918 21.9963 11.929 22 12.9844C22.0036 14.0398 21.6421 15.054 20.9943 15.8062" stroke="#FB7634" stroke-width="1.5" stroke-linecap="round"/>
</g>
<defs>
<clipPath id="clip0_866_9315">
<rect width="24" height="24" fill="white"/>
</clipPath>
</defs>
</svg>
