<svg width="20" height="20" viewBox="0 0 20 20" fill="none" xmlns="http://www.w3.org/2000/svg">
<path d="M7.87793 13.4551L6.875 12.4648L8.84277 10.5098L6.875 8.55469L7.87793 7.56445L9.83301 9.51953L11.7881 7.56445L12.7783 8.55469L10.8232 10.5098L12.7783 12.4648L11.7881 13.4551L9.83301 11.5L7.87793 13.4551ZM5.96094 10.4971C5.96094 10.04 6.31641 9.67188 6.90039 9.67188C7.47168 9.67188 7.82715 10.04 7.82715 10.4971C7.82715 10.9668 7.48438 11.3096 6.90039 11.3096C6.31641 11.3096 5.96094 10.9668 5.96094 10.4971ZM8.88086 13.4043C8.88086 12.9346 9.22363 12.5918 9.80762 12.5918C10.3789 12.5918 10.7344 12.9346 10.7344 13.4043C10.7344 13.8613 10.3789 14.2168 9.80762 14.2168C9.22363 14.2168 8.88086 13.8613 8.88086 13.4043ZM8.88086 7.64062C8.88086 7.1582 9.22363 6.81543 9.80762 6.81543C10.3789 6.81543 10.7344 7.1582 10.7344 7.64062C10.7344 8.08496 10.3789 8.44043 9.80762 8.44043C9.22363 8.44043 8.88086 8.08496 8.88086 7.64062ZM11.7627 10.4971C11.7627 10.04 12.1309 9.67188 12.7148 9.67188C13.2861 9.67188 13.6543 10.04 13.6416 10.4971C13.6543 10.9668 13.2861 11.3096 12.7148 11.3096C12.1309 11.3096 11.7627 10.9668 11.7627 10.4971Z" fill="#E60012"/>
</svg>
