<svg width="16" height="17" viewBox="0 0 16 17" fill="none" xmlns="http://www.w3.org/2000/svg">
<path d="M7.88235 10.9231L14.4963 10.3887V11.8493C14.4963 13.0355 13.5947 13.9972 12.4826 13.9972H7.97199L7.88235 10.9231Z" fill="#B0B8C1"/>
<path fill-rule="evenodd" clip-rule="evenodd" d="M2 7.2505V12.3334C2 13.2538 2.69956 14 3.5625 14H8.52316C8.78189 13.6866 9.149 13.4525 9.62452 13.3642C10.1435 13.2679 10.5568 12.8478 10.6721 12.3001L10.693 12.1984C11.1274 10.0818 13.9528 10.0686 14.4046 12.1811L14.4137 12.2244C14.4201 12.2541 14.4249 11.8621 14.4299 11.8847C14.4456 11.9561 14.3994 11.9085 14.4247 11.9751C14.4302 11.9181 14.5 11.977 14.5 11.9184V7.25049L8.53142 10.4337C8.35427 10.5282 8.14574 10.5282 7.96859 10.4337L2 7.2505Z" fill="#B0B8C1"/>
<path fill-rule="evenodd" clip-rule="evenodd" d="M3.5625 4H12.9375C13.8005 4 14.5 4.74619 14.5 5.66667V5.74954L8.25001 9.08288L2 5.74955V5.66667C2 4.74619 2.69956 4 3.5625 4Z" fill="#B0B8C1"/>
</svg>
