<svg width="52" height="52" viewBox="0 0 52 52" fill="none" xmlns="http://www.w3.org/2000/svg">
<rect width="52" height="52" rx="18" fill="#333333"/>
<path d="M33.207 31.5153V21.125H34.7674V30.1519H39.4059V31.5153H33.207Z" fill="white"/>
<path d="M23.6621 31.5153V21.125H27.3218C29.7049 21.125 30.8823 22.474 30.8823 24.3827C30.8823 25.782 30.2581 26.844 29.0098 27.3104L31.2794 31.5153H29.5063L27.4211 27.5974H27.3218H25.2225V31.5153H23.6621ZM25.2225 26.234H27.1658C28.6836 26.234 29.3077 25.5595 29.3077 24.3827C29.3077 23.2059 28.6836 22.474 27.1658 22.474H25.2225V26.234Z" fill="white"/>
<path d="M20.0023 21.125H21.5626V27.9562C21.5626 30.1376 19.9455 31.6875 17.4915 31.6875C15.0092 31.6875 13.4062 30.1376 13.4062 27.9562V21.125H14.9666V27.827C14.9666 29.2334 15.9312 30.2524 17.4915 30.2524C19.0377 30.2524 20.0023 29.2334 20.0023 27.827V21.125Z" fill="white"/>
</svg>
