<svg width="17" height="17" viewBox="0 0 17 17" fill="none" xmlns="http://www.w3.org/2000/svg">
<path fill-rule="evenodd" clip-rule="evenodd" d="M7.3125 1.625C4.17138 1.625 1.625 4.17138 1.625 7.3125C1.625 10.4536 4.17138 13 7.3125 13C8.88776 13 10.3134 12.3596 11.3434 11.3249C12.3672 10.2964 13 8.87836 13 7.3125C13 4.17138 10.4536 1.625 7.3125 1.625ZM13.0355 11.8649C14.0304 10.6158 14.625 9.03356 14.625 7.3125C14.625 3.27392 11.3511 0 7.3125 0C3.27392 0 0 3.27392 0 7.3125C0 11.3511 3.27392 14.625 7.3125 14.625C9.04458 14.625 10.636 14.0228 11.8888 13.0163L14.8609 16.0099C15.1771 16.3284 15.6915 16.3302 16.0099 16.0141C16.3284 15.6979 16.3302 15.1835 16.0141 14.8651L13.0355 11.8649Z" fill="#777777"/>
</svg>
