<svg width="16" height="16" viewBox="0 0 16 16" fill="none" xmlns="http://www.w3.org/2000/svg">
<path fill-rule="evenodd" clip-rule="evenodd" d="M10.509 5.21321C10.8168 5.49038 10.8417 5.9646 10.5645 6.27242L6.54975 10.7313C6.27258 11.0391 5.79836 11.064 5.49054 10.7868C5.18272 10.5096 5.15787 10.0354 5.43503 9.72759L9.44981 5.26872C9.72698 4.9609 10.2012 4.93605 10.509 5.21321Z" fill="#AAAAAA"/>
<path fill-rule="evenodd" clip-rule="evenodd" d="M5.21303 5.49077C5.49019 5.18295 5.96442 5.15809 6.27224 5.43526L10.7311 9.45004C11.0389 9.7272 11.0638 10.2014 10.7866 10.5092C10.5095 10.8171 10.0352 10.8419 9.72741 10.5648L5.26854 6.54997C4.96072 6.27281 4.93587 5.79859 5.21303 5.49077Z" fill="#AAAAAA"/>
</svg>
