<svg width="52" height="52" viewBox="0 0 52 52" fill="none" xmlns="http://www.w3.org/2000/svg">
<rect width="52" height="52" rx="18" fill="#FFEB00"/>
<path d="M26.2031 15.8438C19.6965 15.8438 14.4219 20.0397 14.4219 25.2157C14.4219 28.562 16.627 31.4983 19.9441 33.1563C19.7637 33.7842 18.7844 37.1958 18.7455 37.4638C18.7455 37.4638 18.722 37.6652 18.8513 37.742C18.9805 37.8188 19.1326 37.7592 19.1326 37.7592C19.5032 37.7069 23.4308 34.9235 24.1106 34.4401C24.7897 34.5372 25.489 34.5876 26.2031 34.5876C32.7098 34.5876 37.9844 30.3917 37.9844 25.2157C37.9844 20.0397 32.7098 15.8438 26.2031 15.8438Z" fill="#060B11"/>
</svg>
