<svg width="31" height="30" viewBox="0 0 31 30" fill="none" xmlns="http://www.w3.org/2000/svg">
<g clip-path="url(#clip0_1398_29559)">
<path d="M16.6519 9.45052C16.6519 9.45052 17.7411 9.81022 19.4256 10.0637C21.5755 10.387 24.8029 10.387 25.3408 9.29048C25.7825 8.39045 23.7271 4.00122 22.4254 4.00122C21.4811 4.00122 21.0579 4.60494 19.7747 5.9534C18.4915 7.30186 16.6519 9.45052 16.6519 9.45052Z" fill="#FB7634"/>
<path d="M14.1499 9.44951C14.1499 9.44951 13.0605 9.80911 11.3759 10.0626C9.22578 10.3857 5.99812 10.3857 5.46017 9.28951C5.02172 8.38812 7.07569 4 8.37755 4C9.3219 4 9.74517 4.60356 11.0285 5.95168C12.3118 7.2998 14.1499 9.44951 14.1499 9.44951Z" fill="#FB7634"/>
<path d="M17.8999 8.375C17.8999 8.375 19.7743 5.60589 20.8475 4.76676C21.375 4.35594 21.8941 4.90837 21.5259 5.52547C21.1743 6.11985 17.8999 8.375 17.8999 8.375Z" fill="#EC1B23"/>
<path d="M12.8999 8.375C12.8999 8.375 11.0255 5.60589 9.95232 4.76676C9.42484 4.35594 8.90566 4.90837 9.2739 5.52547C9.62555 6.11985 12.8999 8.375 12.8999 8.375Z" fill="#EC1B23"/>
<path d="M15.3991 7.35083C14.0546 7.35083 12.9621 8.60004 12.8999 9.85083H17.8999C17.8361 8.60004 16.7421 7.35083 15.3991 7.35083Z" fill="#EC1B23"/>
<path d="M24.632 26.5H6.1678L5.3999 12.75H25.3999L24.632 26.5Z" fill="#FFD74A"/>
<path d="M26.2723 14H4.65535C4.58579 14 4.52376 13.9511 4.50308 13.8811C4.01995 12.2944 4.03311 10.5782 4.5388 9H26.2723C26.7629 10.5803 26.7761 12.2901 26.308 13.8811L26.2723 14Z" fill="#FFB800"/>
<path d="M12.8999 9H17.8999V26.5H12.8999V9Z" fill="#FB7634"/>
</g>
<defs>
<clipPath id="clip0_1398_29559">
<rect width="30" height="30" fill="white" transform="translate(0.399902)"/>
</clipPath>
</defs>
</svg>
