<svg width="30" height="30" viewBox="0 0 30 30" fill="none" xmlns="http://www.w3.org/2000/svg">
<g clip-path="url(#clip0_1398_29553)">
<rect x="5" y="4.5" width="16" height="23" rx="2" fill="white"/>
<path d="M5 6.5C5 5.39543 5.89543 4.5 7 4.5H19C20.1046 4.5 21 5.39543 21 6.5V7.375H5V6.5Z" fill="#999999"/>
<path d="M5 24.625H21V25.5C21 26.6046 20.1046 27.5 19 27.5H7C5.89543 27.5 5 26.6046 5 25.5V24.625Z" fill="#999999"/>
<circle cx="21.1523" cy="21.4783" r="7.5" fill="#FFB800"/>
<path fill-rule="evenodd" clip-rule="evenodd" d="M18.391 19.2508C18.6923 19.1754 18.9977 19.3587 19.0731 19.6601L19.7296 22.2861L20.6188 19.6186C20.6953 19.3889 20.9103 19.234 21.1524 19.234C21.3945 19.234 21.6095 19.3889 21.686 19.6186L22.5752 22.2861L23.2317 19.6601C23.307 19.3587 23.6124 19.1754 23.9138 19.2508C24.2152 19.3261 24.3984 19.6315 24.3231 19.9329L23.964 21.2178H24.9081C25.2188 21.2178 25.4706 21.4696 25.4706 21.7803C25.4706 22.0909 25.2188 22.3428 24.9081 22.3428H23.6497L23.1981 23.9587C23.1374 24.2013 22.9239 24.3241 22.674 24.3337C22.4241 24.3433 22.1978 24.196 22.1188 23.9587L21.1524 21.5753L20.186 23.9587C20.1069 24.196 19.8807 24.3433 19.6308 24.3337C19.3809 24.3241 19.1673 24.2013 19.1067 23.9587L18.6551 22.3428H17.4063C17.0956 22.3428 16.8438 22.091 16.8438 21.7803C16.8438 21.4697 17.0956 21.2178 17.4063 21.2178H18.3407L17.9817 19.9329C17.9063 19.6315 18.0896 19.3261 18.391 19.2508Z" fill="white"/>
</g>
<defs>
<clipPath id="clip0_1398_29553">
<rect width="30" height="30" fill="white"/>
</clipPath>
</defs>
</svg>
