<svg width="31" height="30" viewBox="0 0 31 30" fill="none" xmlns="http://www.w3.org/2000/svg">
<g clip-path="url(#clip0_1398_29568)">
<path d="M12.7269 3.49135C14.2154 1.68262 16.9848 1.68262 18.4733 3.49135C19.2608 4.44819 20.4729 4.95025 21.7063 4.83047C24.0378 4.60404 25.9961 6.56234 25.7696 8.89384C25.6498 10.1272 26.1519 11.3393 27.1087 12.1268C28.9175 13.6153 28.9175 16.3847 27.1087 17.8732C26.1519 18.6607 25.6498 19.8728 25.7696 21.1062C25.9961 23.4377 24.0378 25.396 21.7063 25.1695C20.4729 25.0497 19.2608 25.5518 18.4733 26.5087C16.9848 28.3174 14.2154 28.3174 12.7269 26.5087C11.9394 25.5518 10.7273 25.0497 9.49394 25.1695C7.16244 25.396 5.20414 23.4377 5.43057 21.1062C5.55035 19.8728 5.04829 18.6607 4.09145 17.8732C2.28272 16.3847 2.28272 13.6153 4.09145 12.1268C5.04829 11.3393 5.55035 10.1272 5.43057 8.89384C5.20414 6.56234 7.16244 4.60404 9.49394 4.83047C10.7273 4.95025 11.9394 4.44819 12.7269 3.49135Z" fill="#07BFE0"/>
<path fill-rule="evenodd" clip-rule="evenodd" d="M15.6009 16.2018C14.6101 17.2146 13.1055 18.5 11.8503 18.5C9.77913 18.5 8.1001 16.933 8.1001 15C8.1001 13.067 9.77913 11.5 11.8503 11.5C13.1055 11.5 14.6101 12.7854 15.6009 13.7982C16.5917 12.7854 18.0963 11.5 19.3515 11.5C21.4227 11.5 23.1017 13.067 23.1017 15C23.1017 16.933 21.4227 18.5 19.3515 18.5C18.0963 18.5 16.5917 17.2146 15.6009 16.2018ZM13.9498 14.4389C14.1549 14.6285 14.3477 14.8194 14.5222 15C14.3477 15.1806 14.1549 15.3715 13.9498 15.5611C13.5215 15.957 13.0746 16.3146 12.6561 16.5646C12.2122 16.8299 11.9485 16.8846 11.8503 16.8846C10.5525 16.8846 9.70734 15.9302 9.70734 15C9.70734 14.0698 10.5525 13.1154 11.8503 13.1154C11.9485 13.1154 12.2122 13.1701 12.6561 13.4354C13.0746 13.6854 13.5215 14.043 13.9498 14.4389ZM21.4945 15C21.4945 15.9302 20.6493 16.8846 19.3515 16.8846C19.2533 16.8846 18.9896 16.8299 18.5457 16.5646C18.1272 16.3146 17.6804 15.957 17.252 15.5611C17.0469 15.3715 16.8542 15.1806 16.6796 15C16.8542 14.8194 17.0469 14.6285 17.252 14.4389C17.6804 14.043 18.1272 13.6854 18.5457 13.4354C18.9896 13.1701 19.2533 13.1154 19.3515 13.1154C20.6493 13.1154 21.4945 14.0698 21.4945 15Z" fill="white"/>
</g>
<defs>
<clipPath id="clip0_1398_29568">
<rect width="30" height="30" fill="white" transform="translate(0.600098)"/>
</clipPath>
</defs>
</svg>
