<svg width="24" height="24" viewBox="0 0 24 24" fill="none" xmlns="http://www.w3.org/2000/svg">
<circle cx="12" cy="12" r="10" fill="#C8C8C8"/>
<path fill-rule="evenodd" clip-rule="evenodd" d="M14.5083 9.21321C14.8161 9.49038 14.841 9.9646 14.5638 10.2724L10.549 14.7313C10.2719 15.0391 9.79763 15.064 9.48981 14.7868C9.18199 14.5096 9.15713 14.0354 9.4343 13.7276L13.4491 9.26872C13.7262 8.9609 14.2005 8.93605 14.5083 9.21321Z" fill="white"/>
<path fill-rule="evenodd" clip-rule="evenodd" d="M9.2123 9.49077C9.48946 9.18295 9.96368 9.15809 10.2715 9.43526L14.7304 13.45C15.0382 13.7272 15.063 14.2014 14.7859 14.5092C14.5087 14.8171 14.0345 14.8419 13.7267 14.5648L9.26781 10.55C8.95999 10.2728 8.93513 9.79859 9.2123 9.49077Z" fill="white"/>
</svg>
