<svg width="30" height="30" viewBox="0 0 30 30" fill="none" xmlns="http://www.w3.org/2000/svg">
<g clip-path="url(#clip0_1206_7835)">
<rect y="5" width="24" height="17" rx="2" fill="#4A91E4"/>
<path d="M10.9087 11.0452L14.1425 12.9855C14.5309 13.2185 14.5309 13.7815 14.1425 14.0145L10.9087 15.9548C10.5088 16.1947 10 15.9067 10 15.4403L10 11.5597C10 11.0933 10.5088 10.8053 10.9087 11.0452Z" fill="white"/>
<path d="M20.2761 13.0948C21.1692 12.0096 22.8308 12.0096 23.7239 13.0948C24.1964 13.6689 24.9237 13.9702 25.6637 13.8983C27.0626 13.7624 28.2376 14.9374 28.1017 16.3363C28.0298 17.0763 28.3311 17.8036 28.9052 18.2761C29.9904 19.1692 29.9904 20.8308 28.9052 21.7239C28.3311 22.1964 28.0298 22.9237 28.1017 23.6637C28.2376 25.0626 27.0626 26.2376 25.6637 26.1017C24.9237 26.0298 24.1964 26.3311 23.7239 26.9052C22.8308 27.9904 21.1692 27.9904 20.2761 26.9052C19.8036 26.3311 19.0763 26.0298 18.3363 26.1017C16.9374 26.2376 15.7624 25.0626 15.8983 23.6637C15.9702 22.9237 15.6689 22.1964 15.0948 21.7239C14.0096 20.8308 14.0096 19.1692 15.0948 18.2761C15.6689 17.8036 15.9702 17.0763 15.8983 16.3363C15.7624 14.9374 16.9374 13.7624 18.3363 13.8983C19.0763 13.9702 19.8036 13.6689 20.2761 13.0948Z" fill="#07BFE0"/>
<path fill-rule="evenodd" clip-rule="evenodd" d="M23.1203 17.861L23.1296 17.8083C23.1296 17.8083 23.1264 17.8141 23.1183 17.8194C23.1114 17.8239 23.0993 17.8298 23.0822 17.8321C23.0639 17.8345 23.0469 17.832 23.0348 17.8276C23.0638 17.8383 23.0923 17.8494 23.1203 17.861ZM22.3094 22.0005C22.3726 21.9324 22.4176 21.8459 22.435 21.7475L23.1203 17.861C23.7117 18.1067 24.0728 18.5685 24.1989 19.0191C24.3318 19.4941 24.201 19.9006 23.8859 20.1212C23.6597 20.2796 23.6047 20.5913 23.7631 20.8175C23.9215 21.0437 24.2332 21.0987 24.4594 20.9403C25.2022 20.4203 25.3804 19.5307 25.1619 18.7497C24.9426 17.9656 24.3207 17.2338 23.3789 16.8887C22.7692 16.6652 22.2355 17.1203 22.1448 17.6346L21.7685 19.7685C21.5633 19.6226 21.3233 19.5189 21.0588 19.4722C20.107 19.3044 19.1994 19.94 19.0315 20.8918C18.8637 21.8436 19.4992 22.7512 20.4511 22.9191C21.2236 23.0553 21.967 22.6623 22.3094 22.0005ZM21.4935 21.3259C21.4216 21.7338 21.0326 22.0062 20.6247 21.9343C20.2168 21.8623 19.9444 21.4733 20.0163 21.0654C20.0883 20.6575 20.4773 20.3851 20.8852 20.457C21.2931 20.529 21.5655 20.918 21.4935 21.3259Z" fill="white"/>
</g>
<defs>
<clipPath id="clip0_1206_7835">
<rect width="30" height="30" fill="white"/>
</clipPath>
</defs>
</svg>
