<svg width="18" height="15" viewBox="0 0 18 15" fill="none" xmlns="http://www.w3.org/2000/svg">
<path d="M0 3H14.8C15.9201 3 16.4802 3 16.908 3.21799C17.2843 3.40973 17.5903 3.71569 17.782 4.09202C18 4.51984 18 5.0799 18 6.2V11.8C18 12.9201 18 13.4802 17.782 13.908C17.5903 14.2843 17.2843 14.5903 16.908 14.782C16.4802 15 15.9201 15 14.8 15H3.2C2.0799 15 1.51984 15 1.09202 14.782C0.715695 14.5903 0.409734 14.2843 0.217987 13.908C0 13.4802 0 12.9201 0 11.8V3Z" fill="#07BFE0"/>
<path d="M0 3C0 2.06812 0 1.60218 0.152241 1.23463C0.355229 0.744577 0.744577 0.355229 1.23463 0.152241C1.60218 0 2.06812 0 3 0H5.34315C6.16065 0 6.5694 0 6.93694 0.152241C7.30448 0.304482 7.59351 0.593512 8.17157 1.17157L10 3H0Z" fill="#07BFE0"/>
<path d="M6.5 8.75L8.39393 10.6439C8.45251 10.7025 8.54749 10.7025 8.60607 10.6439L12.5 6.75" stroke="white" stroke-linecap="round"/>
</svg>
