<svg width="24" height="24" viewBox="0 0 24 24" fill="none" xmlns="http://www.w3.org/2000/svg">
<path d="M12 15.3462L20.9949 14.6248V16.5966C20.9949 18.198 19.7688 19.4962 18.2563 19.4962H12.1219L12 15.3462Z" fill="#4CD459"/>
<path fill-rule="evenodd" clip-rule="evenodd" d="M4 10.3882V17.2501C4 18.4927 4.9514 19.5001 6.125 19.5001H12.8715C13.2234 19.0769 13.7226 18.7609 14.3693 18.6417C15.0751 18.5117 15.6372 17.9445 15.7941 17.2051L15.8225 17.0679C16.4132 14.2104 20.2558 14.1927 20.8702 17.0445L20.8827 17.103C20.8913 17.1431 20.8979 16.6139 20.9047 16.6444C20.9261 16.7408 20.8632 16.6765 20.8976 16.7664C20.9051 16.6895 21 16.769 21 16.6899V10.3882L12.8827 14.6856C12.6418 14.8131 12.3582 14.8131 12.1173 14.6856L4 10.3882Z" fill="#4CD459"/>
<path fill-rule="evenodd" clip-rule="evenodd" d="M6.125 6H18.875C20.0486 6 21 7.00736 21 8.25V8.36189L12.5 12.8619L4 8.3619V8.25C4 7.00736 4.9514 6 6.125 6Z" fill="#4CD459"/>
</svg>
