<svg width="18" height="19" viewBox="0 0 18 19" fill="none" xmlns="http://www.w3.org/2000/svg">
<path d="M8 8H8.5C8.77614 8 9 8.22386 9 8.5V12.5C9 12.7761 9.22386 13 9.5 13H10M9.00001 6H9.01001" stroke="#444444" stroke-width="1.5" stroke-linecap="round" stroke-linejoin="round"/>
<path d="M10.3892 17.3785C11.4238 17.196 12.4124 16.8116 13.2984 16.2471C14.1844 15.6827 14.9506 14.9492 15.5532 14.0886C16.1558 13.228 16.583 12.2572 16.8104 11.2315C17.0378 10.2058 17.0609 9.14543 16.8785 8.11081C16.696 7.0762 16.3116 6.08765 15.7471 5.2016C15.1827 4.31556 14.4492 3.54937 13.5886 2.94678C12.728 2.3442 11.7572 1.91702 10.7315 1.68963C9.70584 1.46225 8.64543 1.43911 7.61081 1.62154C6.5762 1.80397 5.58765 2.1884 4.7016 2.75287C3.81556 3.31734 3.04937 4.05081 2.44678 4.91139C1.8442 5.77197 1.41702 6.74281 1.18963 7.76848C0.962246 8.79416 0.939108 9.85457 1.12154 10.8892C1.30397 11.9238 1.6884 12.9124 2.25287 13.7984C2.81734 14.6844 3.55081 15.4506 4.41139 16.0532C5.27197 16.6558 6.24281 17.083 7.26849 17.3104C8.29416 17.5378 9.35457 17.5609 10.3892 17.3785L10.3892 17.3785Z" stroke="#444444" stroke-width="1.5"/>
</svg>
