<svg width="24" height="24" viewBox="0 0 24 24" fill="none" xmlns="http://www.w3.org/2000/svg">
<g clip-path="url(#clip0_1456_9663)">
<path fill-rule="evenodd" clip-rule="evenodd" d="M18.9588 5.041C19.2801 5.36234 19.2801 5.88335 18.9588 6.20469L6.20451 18.959C5.88316 19.2803 5.36216 19.2803 5.04081 18.959C4.71947 18.6376 4.71947 18.1166 5.04081 17.7953L17.7951 5.041C18.1164 4.71965 18.6374 4.71965 18.9588 5.041Z" fill="black"/>
<path fill-rule="evenodd" clip-rule="evenodd" d="M5.04081 5.041C5.36216 4.71965 5.88316 4.71965 6.20451 5.041L18.9588 17.7953C19.2801 18.1166 19.2801 18.6376 18.9588 18.959C18.6374 19.2803 18.1164 19.2803 17.7951 18.959L5.04081 6.20469C4.71947 5.88335 4.71947 5.36234 5.04081 5.041Z" fill="black"/>
</g>
<defs>
<clipPath id="clip0_1456_9663">
<rect width="24" height="24" fill="white"/>
</clipPath>
</defs>
</svg>
