<svg width="24" height="24" viewBox="0 0 24 24" fill="none" xmlns="http://www.w3.org/2000/svg">
<g clip-path="url(#clip0_866_9272)">
<path d="M12 4C6.47715 4 2 8.47715 2 14C2 16.2516 2.74418 18.3295 4 20.001L20.0007 20C21.2561 18.3287 22 16.2512 22 14C22 8.47715 17.5228 4 12 4Z" fill="#EEEEEE"/>
<path fill-rule="evenodd" clip-rule="evenodd" d="M12 7.75C8.43559 7.75 5.75 10.2048 5.75 13C5.75 13.4142 5.41421 13.75 5 13.75C4.58579 13.75 4.25 13.4142 4.25 13C4.25 9.16778 7.83242 6.25 12 6.25C16.1676 6.25 19.75 9.16778 19.75 13C19.75 13.4142 19.4142 13.75 19 13.75C18.5858 13.75 18.25 13.4142 18.25 13C18.25 10.2048 15.5644 7.75 12 7.75Z" fill="url(#paint0_linear_866_9272)"/>
<path d="M12 16L15.5 12.5" stroke="#999999" stroke-width="1.5" stroke-linecap="round"/>
<circle cx="12" cy="16" r="2" fill="#666666"/>
</g>
<defs>
<linearGradient id="paint0_linear_866_9272" x1="4.5" y1="13.5" x2="19.5" y2="13" gradientUnits="userSpaceOnUse">
<stop stop-color="#07BFE0"/>
<stop offset="1" stop-color="#886EF0"/>
</linearGradient>
<clipPath id="clip0_866_9272">
<rect width="24" height="24" fill="white"/>
</clipPath>
</defs>
</svg>
