<svg width="40" height="40" viewBox="0 0 40 40" fill="none" xmlns="http://www.w3.org/2000/svg">
<g clip-path="url(#clip0_535_13578)">
<rect width="40" height="40" rx="12" fill="#3CDF57"/>
<g filter="url(#filter0_d_535_13578)">
<rect x="10" y="12.8125" width="20" height="14.3059" rx="4" fill="white"/>
<mask id="mask0_535_13578" style="mask-type:alpha" maskUnits="userSpaceOnUse" x="10" y="12" width="20" height="16">
<rect x="10" y="12.8125" width="20" height="14.375" rx="4" fill="#D9D9D9"/>
</mask>
<g mask="url(#mask0_535_13578)">
<mask id="mask1_535_13578" style="mask-type:alpha" maskUnits="userSpaceOnUse" x="7" y="14" width="26" height="10">
<path d="M19.9996 23.534L7.22179 14.6878L32.7773 14.6878L19.9996 23.534Z" fill="#3FE25A"/>
</mask>
<g mask="url(#mask1_535_13578)">
<rect y="3.05176e-05" width="40" height="40" rx="20" fill="url(#paint0_linear_535_13578)"/>
</g>
<path d="M20 21.5L10.1978 14.6385C8.59586 13.5171 9.3893 11 11.3447 11L28.6553 11C30.6107 11 31.4041 13.5171 29.8022 14.6385L20 21.5Z" fill="white"/>
</g>
</g>
</g>
<defs>
<filter id="filter0_d_535_13578" x="-6" y="-3.1875" width="52" height="46.3059" filterUnits="userSpaceOnUse" color-interpolation-filters="sRGB">
<feFlood flood-opacity="0" result="BackgroundImageFix"/>
<feColorMatrix in="SourceAlpha" type="matrix" values="0 0 0 0 0 0 0 0 0 0 0 0 0 0 0 0 0 0 127 0" result="hardAlpha"/>
<feOffset/>
<feGaussianBlur stdDeviation="8"/>
<feComposite in2="hardAlpha" operator="out"/>
<feColorMatrix type="matrix" values="0 0 0 0 0 0 0 0 0 0 0 0 0 0 0 0 0 0 0.08 0"/>
<feBlend mode="normal" in2="BackgroundImageFix" result="effect1_dropShadow_535_13578"/>
<feBlend mode="normal" in="SourceGraphic" in2="effect1_dropShadow_535_13578" result="shape"/>
</filter>
<linearGradient id="paint0_linear_535_13578" x1="20" y1="3.05176e-05" x2="20" y2="40" gradientUnits="userSpaceOnUse">
<stop stop-color="#5CF776"/>
<stop offset="1" stop-color="#13C230"/>
</linearGradient>
<clipPath id="clip0_535_13578">
<rect width="40" height="40" fill="white"/>
</clipPath>
</defs>
</svg>
