<svg width="30" height="30" viewBox="0 0 30 30" fill="none" xmlns="http://www.w3.org/2000/svg">
<path d="M8 11.0288H22" stroke="#777777" stroke-linecap="round" stroke-linejoin="round"/>
<path d="M9.75 11.0288H20.25V20.1153C20.25 20.3831 20.127 20.6399 19.9083 20.8292C19.6895 21.0185 19.3927 21.125 19.0833 21.125H10.9167C10.6072 21.125 10.3105 21.0185 10.0917 20.8292C9.87292 20.6399 9.75 20.3831 9.75 20.1153V11.0288Z" stroke="#777777" stroke-linecap="round" stroke-linejoin="round"/>
<path d="M12.082 11.0288V10.524C12.082 9.85462 12.3893 9.21262 12.9363 8.73927C13.4833 8.26592 14.2252 8 14.9987 8C15.7722 8 16.5141 8.26592 17.0611 8.73927C17.6081 9.21262 17.9154 9.85462 17.9154 10.524V11.0288" stroke="#777777" stroke-linecap="round" stroke-linejoin="round"/>
<path d="M13.25 14.0592V18.0992" stroke="#777777" stroke-linecap="round" stroke-linejoin="round"/>
<path d="M16.75 14.0592V18.0992" stroke="#777777" stroke-linecap="round" stroke-linejoin="round"/>
</svg>
