<svg width="32" height="32" viewBox="0 0 32 32" fill="none" xmlns="http://www.w3.org/2000/svg">
<path fill-rule="evenodd" clip-rule="evenodd" d="M23.7322 8.26779C24.0893 8.62484 24.0893 9.20373 23.7322 9.56078L9.56078 23.7322C9.20373 24.0893 8.62484 24.0893 8.26779 23.7322C7.91074 23.3752 7.91074 22.7963 8.26779 22.4392L22.4392 8.26779C22.7963 7.91074 23.3752 7.91074 23.7322 8.26779Z" fill="black"/>
<path fill-rule="evenodd" clip-rule="evenodd" d="M8.26779 8.26779C8.62484 7.91074 9.20373 7.91074 9.56078 8.26779L23.7322 22.4392C24.0893 22.7963 24.0893 23.3752 23.7322 23.7322C23.3752 24.0893 22.7963 24.0893 22.4392 23.7322L8.26779 9.56078C7.91074 9.20373 7.91074 8.62484 8.26779 8.26779Z" fill="black"/>
</svg>
