<svg width="40" height="40" viewBox="0 0 40 40" fill="none" xmlns="http://www.w3.org/2000/svg">
<path d="M40 20C40 31.0457 31.0457 40 20 40C8.95431 40 0 31.0457 0 20C0 8.95431 8.95431 0 20 0C31.0457 0 40 8.95431 40 20Z" fill="#DAE0ED"/>
<path d="M19.9994 30.2857C20.9462 30.2857 21.7137 29.5182 21.7137 28.5715C21.7137 27.6247 20.9462 26.8572 19.9994 26.8572C19.0527 26.8572 18.2852 27.6247 18.2852 28.5715C18.2852 29.5182 19.0527 30.2857 19.9994 30.2857Z" fill="white"/>
<path d="M17.8662 12.5664C17.7839 11.3321 18.7628 10.2857 19.9998 10.2857C21.2368 10.2857 22.2158 11.3321 22.1335 12.5664L21.4625 22.6316C21.4112 23.4016 20.7716 24 19.9998 24C19.2281 24 18.5885 23.4016 18.5372 22.6316L17.8662 12.5664Z" fill="white"/>
</svg>
