<svg width="24" height="24" viewBox="0 0 24 24" fill="none" xmlns="http://www.w3.org/2000/svg">
<circle cx="12" cy="12" r="10" fill="#C8C8C8"/>
<path fill-rule="evenodd" clip-rule="evenodd" d="M14.5085 9.21321C14.8164 9.49038 14.8412 9.9646 14.564 10.2724L10.5493 14.7313C10.2721 15.0391 9.79787 15.064 9.49005 14.7868C9.18223 14.5096 9.15738 14.0354 9.43454 13.7276L13.4493 9.26872C13.7265 8.9609 14.2007 8.93605 14.5085 9.21321Z" fill="white"/>
<path fill-rule="evenodd" clip-rule="evenodd" d="M9.21279 9.49077C9.48995 9.18295 9.96417 9.15809 10.272 9.43526L14.7309 13.45C15.0387 13.7272 15.0635 14.2014 14.7864 14.5092C14.5092 14.8171 14.035 14.8419 13.7272 14.5648L9.2683 10.55C8.96048 10.2728 8.93562 9.79859 9.21279 9.49077Z" fill="white"/>
</svg>
