<svg width="24" height="24" viewBox="0 0 24 24" fill="none" xmlns="http://www.w3.org/2000/svg">
<g clip-path="url(#clip0_866_9358)">
<path d="M9.70141 2.79308C10.8922 1.34609 13.1078 1.34609 14.2986 2.79308C14.9285 3.55855 15.8982 3.9602 16.8849 3.86438C18.7501 3.68323 20.3168 5.24987 20.1356 7.11507C20.0398 8.10178 20.4414 9.07146 21.2069 9.70141C22.6539 10.8922 22.6539 13.1078 21.2069 14.2986C20.4414 14.9285 20.0398 15.8982 20.1356 16.8849C20.3168 18.7501 18.7501 20.3168 16.8849 20.1356C15.8982 20.0398 14.9285 20.4414 14.2986 21.2069C13.1078 22.6539 10.8922 22.6539 9.70141 21.2069C9.07146 20.4414 8.10178 20.0398 7.11507 20.1356C5.24987 20.3168 3.68323 18.7501 3.86438 16.8849C3.9602 15.8982 3.55855 14.9285 2.79308 14.2986C1.34609 13.1078 1.34609 10.8922 2.79308 9.70141C3.55855 9.07146 3.9602 8.10178 3.86438 7.11507C3.68323 5.24987 5.24987 3.68323 7.11507 3.86438C8.10178 3.9602 9.07146 3.55855 9.70141 2.79308Z" fill="#388AEB"/>
<path d="M14.66 16.192C14.132 16.192 13.703 16.042 13.373 15.742C13.049 15.448 12.887 15.031 12.887 14.491V13.528C12.887 12.988 13.049 12.571 13.373 12.277C13.703 11.977 14.132 11.827 14.66 11.827C15.182 11.827 15.602 11.977 15.92 12.277C16.244 12.571 16.406 12.988 16.406 13.528V14.491C16.406 15.031 16.244 15.448 15.92 15.742C15.602 16.042 15.182 16.192 14.66 16.192ZM14.66 14.932C14.762 14.932 14.852 14.896 14.93 14.824C15.014 14.752 15.056 14.644 15.056 14.5V13.519C15.056 13.381 15.014 13.276 14.93 13.204C14.846 13.126 14.756 13.087 14.66 13.087C14.558 13.087 14.462 13.126 14.372 13.204C14.288 13.276 14.246 13.381 14.246 13.519V14.5C14.246 14.644 14.288 14.752 14.372 14.824C14.462 14.896 14.558 14.932 14.66 14.932ZM9.764 12.133C9.242 12.133 8.816 11.983 8.486 11.683C8.162 11.383 8 10.963 8 10.423V9.46C8 8.914 8.162 8.494 8.486 8.2C8.81 7.9 9.236 7.75 9.764 7.75C10.292 7.75 10.715 7.9 11.033 8.2C11.357 8.494 11.519 8.914 11.519 9.46V10.423C11.519 10.963 11.357 11.383 11.033 11.683C10.715 11.983 10.292 12.133 9.764 12.133ZM9.764 10.855C9.866 10.855 9.956 10.822 10.034 10.756C10.118 10.684 10.16 10.576 10.16 10.432V9.451C10.16 9.307 10.118 9.199 10.034 9.127C9.956 9.055 9.866 9.019 9.764 9.019C9.662 9.019 9.566 9.055 9.476 9.127C9.392 9.199 9.35 9.307 9.35 9.451V10.432C9.35 10.576 9.392 10.684 9.476 10.756C9.566 10.822 9.662 10.855 9.764 10.855ZM11.024 15.697C10.934 15.871 10.835 15.994 10.727 16.066C10.619 16.144 10.493 16.183 10.349 16.183C10.181 16.183 10.037 16.123 9.917 16.003C9.797 15.883 9.737 15.736 9.737 15.562C9.737 15.424 9.758 15.313 9.8 15.229L13.346 8.245C13.514 7.921 13.742 7.759 14.03 7.759C14.198 7.759 14.342 7.819 14.462 7.939C14.582 8.059 14.642 8.206 14.642 8.38C14.642 8.506 14.606 8.641 14.534 8.785L11.024 15.697Z" fill="white"/>
</g>
<defs>
<clipPath id="clip0_866_9358">
<rect width="24" height="24" fill="white"/>
</clipPath>
</defs>
</svg>
