<svg width="24" height="24" viewBox="0 0 24 24" fill="none" xmlns="http://www.w3.org/2000/svg">
<g clip-path="url(#clip0_866_9293)">
<circle cx="12" cy="12.5" r="10" fill="#FFB800"/>
<path fill-rule="evenodd" clip-rule="evenodd" d="M8.31828 9.52257C8.72012 9.42211 9.12732 9.66643 9.22778 10.0683L10.1031 13.5696L11.2887 10.013C11.3908 9.70675 11.6774 9.50018 12.0002 9.50018C12.323 9.50018 12.6096 9.70675 12.7117 10.013L13.8972 13.5696L14.7726 10.0683C14.873 9.66643 15.2802 9.42211 15.6821 9.52257C16.0839 9.62303 16.3282 10.0302 16.2278 10.4321L15.7477 12.15H17C17.4142 12.15 17.75 12.4858 17.75 12.9C17.75 13.3142 17.4142 13.65 17 13.65H15.3285L14.7278 15.7998C14.6469 16.1233 14.3622 16.287 14.029 16.2998C13.6958 16.3126 13.3941 16.1161 13.2887 15.7998L12.0002 12.6219L10.7117 15.7998C10.6062 16.1161 10.3046 16.3126 9.9714 16.2998C9.63819 16.287 9.35344 16.1233 9.27257 15.7998L8.67182 13.65H7C6.58579 13.65 6.25 13.3142 6.25 12.9C6.25 12.4858 6.58579 12.15 7 12.15H8.25265L7.77257 10.4321C7.67211 10.0302 7.91643 9.62303 8.31828 9.52257Z" fill="white"/>
</g>
<defs>
<clipPath id="clip0_866_9293">
<rect width="24" height="24" fill="white"/>
</clipPath>
</defs>
</svg>
