<svg width="24" height="24" viewBox="0 0 24 24" fill="none" xmlns="http://www.w3.org/2000/svg">
<g clip-path="url(#clip0_866_11411)">
<g clip-path="url(#clip1_866_11411)">
<path d="M14.8791 10.606V7.0705H11.3436L14.8791 10.606Z" stroke="#D9D9D9" stroke-linejoin="round"/>
<path d="M6.87903 15.7786C10.0032 18.9028 15.0685 18.9028 18.1927 15.7786L6.87903 4.46487C3.75483 7.58907 3.75483 12.6544 6.87903 15.7786Z" fill="#EEEEEE"/>
<rect x="7.58594" y="2.34375" width="18" height="2" rx="1" transform="rotate(45 7.58594 2.34375)" fill="#07BFE0"/>
<path fill-rule="evenodd" clip-rule="evenodd" d="M7.5 13.999C6.94772 13.999 6.5 14.4467 6.5 14.999V19.499H5C4.44772 19.499 4 19.9467 4 20.499V20.999H6.5H9.5H12V20.499C12 19.9467 11.5523 19.499 11 19.499H9.5V14.999C9.5 14.4467 9.05228 13.999 8.5 13.999H7.5Z" fill="#07BFE0"/>
<path d="M15.4553 7.90828C15.8458 7.51775 15.8458 6.88459 15.4553 6.49407C15.0648 6.10354 14.4316 6.10354 14.0411 6.49407C13.6506 6.88459 13.6506 7.51775 14.0411 7.90828C14.4316 8.2988 15.0648 8.2988 15.4553 7.90828Z" fill="#FB7634"/>
<path fill-rule="evenodd" clip-rule="evenodd" d="M14.2019 4.20712C14.1577 4.53894 14.3893 4.82862 14.7192 4.85414C15.2558 4.89564 15.841 5.14912 16.3209 5.62902C16.8008 6.10892 17.0542 6.69409 17.0957 7.23072C17.1213 7.56058 17.4109 7.79217 17.7428 7.74799C18.0746 7.70381 18.3229 7.40059 18.2974 7.07073C18.2332 6.24037 17.8518 5.40818 17.1968 4.75312C16.5417 4.09807 15.7095 3.7167 14.8792 3.65248C14.5493 3.62697 14.2461 3.87529 14.2019 4.20712Z" fill="#FB7634"/>
<path fill-rule="evenodd" clip-rule="evenodd" d="M14.2915 2.22291C14.2705 2.55571 14.5227 2.8273 14.8549 2.82953C15.8763 2.83637 17.1252 3.2914 17.8871 4.05333C18.6669 4.83306 19.1243 6.07176 19.1193 7.08698C19.1177 7.41935 19.3861 7.67489 19.7189 7.65776C20.0517 7.64063 20.3229 7.35731 20.3245 7.02494C20.331 5.71349 19.7646 4.17901 18.763 3.17743C17.7727 2.18707 16.2282 1.63305 14.9309 1.62436C14.5987 1.62213 14.3125 1.89011 14.2915 2.22291Z" fill="#FB7634"/>
</g>
</g>
<defs>
<clipPath id="clip0_866_11411">
<rect width="24" height="24" fill="white"/>
</clipPath>
<clipPath id="clip1_866_11411">
<rect width="24" height="24" fill="white"/>
</clipPath>
</defs>
</svg>
